<svg width="155" height="48" viewBox="0 0 155 48" fill="none" xmlns="http://www.w3.org/2000/svg">
<path d="M84.4062 13.0829C84.4062 12.372 85.0153 12.0022 86.4349 12.0022H87.5843C89.0039 12.0022 89.6129 12.3743 89.6129 13.0829V27.4825C89.6129 29.8499 91.4709 31.5729 94.2104 31.5729C96.9499 31.5729 98.8412 29.8499 98.8412 27.4825V13.0829C98.8412 12.372 99.4503 12.0022 100.87 12.0022H101.986C103.406 12.0022 104.015 12.3743 104.015 13.0829V27.8213C104.015 33.0279 100.398 36.0022 94.2127 36.0022C88.0272 36.0022 84.4107 33.0279 84.4107 27.8213V13.0829H84.4062Z" fill="white"/>
<path d="M106.171 13.3864C106.103 13.1848 106.103 13.0143 106.103 12.8792C106.103 12.3388 106.745 12 108.198 12H109.077C110.395 12 111.174 12.3388 111.342 13.0475L113.878 23.9325C114.148 25.0819 114.52 26.9067 114.926 28.8002C115.229 26.9067 115.772 25.0819 116.075 23.9325L118.846 12.7109C118.981 12.1705 119.623 12 120.706 12H121.99C123.071 12 123.713 12.1683 123.848 12.7109L126.519 23.9325C126.823 25.2169 127.263 27.1437 127.669 29.0372C128.109 27.1791 128.515 25.2169 128.818 23.9325L131.456 13.0475C131.624 12.3366 132.401 12 133.721 12H134.093C135.546 12 136.188 12.3388 136.188 12.8792C136.188 13.0143 136.155 13.1826 136.12 13.3864L130.61 35.0876C130.475 35.5615 129.697 35.7985 128.752 35.7985H126.285C125.339 35.7985 124.526 35.5615 124.426 35.0876L121.113 21.0933L117.665 35.0876C117.53 35.5615 116.753 35.7985 115.805 35.7985H113.371C112.29 35.7985 111.613 35.5615 111.513 35.0876L106.171 13.3864Z" fill="white"/>
<path d="M138.381 13.4217C138.381 12.4761 138.786 12.0686 139.734 12.0686H146.832C149.84 12.0686 154.876 12.9478 154.876 19.4721C154.876 25.9964 148.994 26.8757 147.169 26.8757H143.586V34.7177C143.586 35.4286 142.977 35.8006 141.557 35.8006H140.408C138.988 35.8006 138.379 35.4286 138.379 34.7177V13.4217H138.381ZM146.595 22.4132C147.88 22.4132 149.536 21.906 149.536 19.4721C149.536 17.0382 147.88 16.4979 146.595 16.4979H143.586V22.4132H146.595Z" fill="white"/>
<path d="M82.9044 34.5138C82.973 34.7153 82.973 34.8859 82.973 35.0209C82.973 35.5613 82.3308 35.9002 80.878 35.9002H79.9988C78.6811 35.9002 77.9016 35.5613 77.7332 34.8526L75.1974 23.9677C74.9273 22.8183 74.5552 20.9934 74.1499 19.0999C73.8465 20.9934 73.3039 22.8183 73.0005 23.9677L70.23 35.1893C70.0949 35.7296 69.4527 35.9002 68.3698 35.9002H67.0853C66.0045 35.9002 65.3623 35.7318 65.2272 35.1893L62.5563 23.9677C62.2529 22.6832 61.8122 20.7565 61.407 18.863C60.9662 20.721 60.5609 22.6832 60.2575 23.9677L57.6199 34.8526C57.4516 35.5635 56.6743 35.9002 55.3543 35.9002H54.9823C53.5295 35.9002 52.8872 35.5613 52.8872 35.0209C52.8872 34.8859 52.9204 34.7175 52.9559 34.5138L58.4659 12.8126C58.601 12.3387 59.3783 12.1017 60.324 12.1017H62.7911C63.7368 12.1017 64.5495 12.3387 64.6492 12.8126L67.9622 26.8069L71.4104 12.8126C71.5455 12.3387 72.3229 12.1017 73.2707 12.1017H75.7046C76.7853 12.1017 77.4631 12.3387 77.5627 12.8126L82.9044 34.5138Z" fill="white"/>
<path d="M24 0C10.7454 0 0 10.7454 0 24C0 37.2546 10.7454 48 24 48C37.2546 48 48 37.2546 48 24C48 10.7454 37.2546 0 24 0ZM35.0643 35.0532C33.8019 36.3156 31.7534 36.3156 30.4889 35.0532L26.3276 30.8919C25.0431 29.6075 22.9569 29.6075 21.6724 30.8919L17.5111 35.0532C16.2487 36.3156 14.2002 36.3156 12.9357 35.0532L4.17012 26.2877C2.90778 25.0254 2.90778 22.9768 4.17012 21.7123L12.9357 12.9468C14.198 11.6844 16.2465 11.6844 17.5111 12.9468L21.6724 17.1081C22.9569 18.3925 25.0431 18.3925 26.3276 17.1081L30.4889 12.9468C31.7512 11.6844 33.7997 11.6844 35.0643 12.9468L43.8298 21.7123C45.0922 22.9746 45.0922 25.0232 43.8298 26.2877L35.0643 35.0532ZM34.2338 24C34.2338 24.8903 33.5118 25.6123 32.6215 25.6123H15.3762C14.4859 25.6123 13.7639 24.8903 13.7639 24C13.7639 23.1097 14.4859 22.3877 15.3762 22.3877H32.6215C33.514 22.3877 34.2338 23.1097 34.2338 24Z" fill="url(#paint0_linear_1229_1219)"/>
<defs>
<linearGradient id="paint0_linear_1229_1219" x1="0.00148381" y1="24" x2="47.9998" y2="24" gradientUnits="userSpaceOnUse">
<stop offset="0.1" stop-color="#DC7896"/>
<stop offset="0.9" stop-color="#9E59FE"/>
</linearGradient>
</defs>
</svg>
