<svg width="100" height="100" viewBox="0 0 100 100" fill="none" xmlns="http://www.w3.org/2000/svg">
<path d="M49.5074 22C53.2154 22 56.8041 22.7297 60.1993 24.1592C62.0012 24.9187 63.7285 25.8866 65.3368 27.0183L64.9943 27.197L60.5865 29.4456C57.2211 27.5693 53.394 26.5865 49.5074 26.5865C49.4479 26.5865 49.3883 26.5865 49.3288 26.5865C46.3356 26.6163 43.417 27.2119 40.6621 28.3585C37.9072 29.52 35.4353 31.173 33.3207 33.2875C29.0023 37.6209 26.6197 43.3688 26.6197 49.4742C26.6197 50.4719 26.6793 51.4696 26.8133 52.4674L26.858 52.7801L27.1409 52.6312L65.1879 33.228L73.0653 29.2073L81.9851 24.6506V29.803L72.7973 34.4937L68.2852 36.7869L28.1833 57.2623L28.0046 57.3666L25.9496 58.4089L23.8648 59.4662V59.4513L23.6712 59.5407L17 62.9508V57.7984L19.2635 56.6518C21.1546 55.6839 22.2864 53.6884 22.1226 51.559C22.0779 50.8591 22.0481 50.1592 22.0481 49.4593C22.0481 45.7514 22.7778 42.1478 24.2073 38.7526C25.5922 35.4765 27.5727 32.543 30.0893 30.0115C32.606 27.4948 35.5395 25.4994 38.8156 24.1145C42.1959 22.7297 45.7995 22 49.5074 22Z" fill="#F6F7F8"/>
<path d="M82 36.6978V41.8501L79.7365 42.9967C77.8454 43.9647 76.7136 45.9601 76.8774 48.0895C76.937 48.7894 76.9519 49.5042 76.9519 50.2041C76.9519 53.912 76.2222 57.5156 74.7927 60.9108C73.4078 64.1869 71.4273 67.1204 68.9107 69.6519C66.394 72.1834 63.4456 74.164 60.1844 75.5488C56.8041 76.9784 53.2005 77.7081 49.4926 77.7081C45.7846 77.7081 42.1959 76.9784 38.8007 75.5488C36.984 74.7745 35.2566 73.8066 33.6483 72.6748L38.205 70.3518L38.3837 70.2625C41.7491 72.1388 45.5911 73.1365 49.4926 73.1365C49.5521 73.1365 49.5968 73.1365 49.6564 73.1365C52.6495 73.1216 55.5682 72.5259 58.323 71.3644C61.0779 70.2029 63.5498 68.55 65.6644 66.4354C69.9828 62.117 72.3654 56.3541 72.3654 50.2487C72.3654 49.251 72.3058 48.2384 72.1718 47.2407L72.1271 46.928L71.8442 47.0769L33.7675 66.4503L25.89 70.471L17 74.9979V69.8455L26.1581 65.1697L30.6701 62.8765L82 36.6978Z" fill="#F6F7F8"/>
</svg>
